<svg width="65" height="65" viewBox="0 0 65 65" fill="none" xmlns="http://www.w3.org/2000/svg">
<path d="M32.5 61.6144C16.4396 61.6144 3.38544 48.5603 3.38544 32.4998C3.38544 16.4394 16.4396 3.38525 32.5 3.38525C48.5604 3.38525 61.6146 16.4394 61.6146 32.4998C61.6146 48.5603 48.5604 61.6144 32.5 61.6144ZM32.5 7.44775C18.6875 7.44775 7.44794 18.6873 7.44794 32.4998C7.44794 46.3123 18.6875 57.5519 32.5 57.5519C46.3125 57.5519 57.5521 46.3123 57.5521 32.4998C57.5521 18.6873 46.3125 7.44775 32.5 7.44775Z" fill="white"/>
<path d="M35.9125 44.0916C35.3979 44.0916 34.8833 43.902 34.4771 43.4958L24.9166 33.9354C24.1312 33.1499 24.1312 31.8499 24.9166 31.0645L34.4771 21.5041C35.2625 20.7187 36.5625 20.7187 37.3479 21.5041C38.1333 22.2895 38.1333 23.5895 37.3479 24.3749L29.2229 32.4999L37.3479 40.6249C38.1333 41.4104 38.1333 42.7104 37.3479 43.4958C36.9687 43.902 36.4541 44.0916 35.9125 44.0916Z" fill="white"/>
</svg>
