<svg width="207" height="36" viewBox="0 0 207 36" fill="none" xmlns="http://www.w3.org/2000/svg">
<path d="M206.119 18L191.119 9.33975V26.6603L206.119 18ZM0 19.5H3.03116V16.5H0L0 19.5ZM9.09348 19.5H15.1558V16.5H9.09348V19.5ZM21.2181 19.5H27.2804V16.5H21.2181V19.5ZM33.3428 19.5H39.4051V16.5H33.3428V19.5ZM45.4674 19.5H51.5297V16.5H45.4674V19.5ZM57.592 19.5H63.6544V16.5H57.592V19.5ZM69.7167 19.5H75.779V16.5H69.7167V19.5ZM81.8413 19.5H87.9036V16.5H81.8413V19.5ZM93.966 19.5H100.028V16.5H93.966V19.5ZM106.091 19.5H112.153V16.5H106.091V19.5ZM118.215 19.5H124.278V16.5H118.215V19.5ZM130.34 19.5H136.402V16.5H130.34V19.5ZM142.464 19.5H148.527V16.5H142.464V19.5ZM154.589 19.5H160.651V16.5H154.589V19.5ZM166.714 19.5H172.776V16.5H166.714V19.5ZM178.838 19.5H184.901V16.5H178.838V19.5ZM190.963 19.5H197.025V16.5H190.963V19.5ZM206.119 18L176.119 0.679491V35.3205L206.119 18ZM0 21H3.03116V15H0L0 21ZM9.09348 21H15.1558V15H9.09348V21ZM21.2181 21H27.2804V15H21.2181V21ZM33.3428 21H39.4051V15H33.3428V21ZM45.4674 21H51.5297V15H45.4674V21ZM57.592 21H63.6544V15H57.592V21ZM69.7167 21H75.779V15H69.7167V21ZM81.8413 21H87.9036V15H81.8413V21ZM93.966 21H100.028V15H93.966V21ZM106.091 21H112.153V15H106.091V21ZM118.215 21H124.278V15H118.215V21ZM130.34 21H136.402V15H130.34V21ZM142.464 21H148.527V15H142.464V21ZM154.589 21H160.651V15L154.589 15V21ZM166.714 21H172.776V15H166.714V21ZM178.838 21H184.901V15H178.838V21ZM190.963 21H197.025V15H190.963V21Z" fill="white"/>
</svg>
