<svg width="225" height="35" viewBox="0 0 225 35" fill="none" xmlns="http://www.w3.org/2000/svg">
<path d="M9.2803 17.5L17.9406 26.1603L26.6008 17.5L17.9406 8.83975L9.2803 17.5ZM224.059 17.5L209.059 8.83975V26.1603L224.059 17.5ZM17.9406 19H20.9717V16H17.9406V19ZM27.034 19H33.0964V16H27.034V19ZM39.1587 19H45.221V16H39.1587V19ZM51.2833 19H57.3456V16H51.2833V19ZM63.408 19H69.4703V16H63.408V19ZM75.5326 19H81.5949V16H75.5326V19ZM87.6572 19H93.7196V16H87.6572V19ZM99.7819 19H105.844V16H99.7819V19ZM111.907 19H117.969V16H111.907V19ZM124.031 19H130.093V16H124.031V19ZM136.156 19H142.218V16H136.156V19ZM148.28 19H154.343V16H148.28V19ZM160.405 19H166.467V16L160.405 16V19ZM172.53 19H178.592V16H172.53V19ZM184.654 19H190.717V16H184.654V19ZM196.779 19H202.841V16H196.779V19ZM208.904 19H214.966V16H208.904V19ZM0.620043 17.5L17.9406 34.8205L35.2611 17.5L17.9406 0.179491L0.620043 17.5ZM224.059 17.5L194.059 0.179491V34.8205L224.059 17.5ZM17.9406 20.5H20.9717V14.5H17.9406V20.5ZM27.034 20.5H33.0964V14.5H27.034V20.5ZM39.1587 20.5H45.221V14.5H39.1587V20.5ZM51.2833 20.5H57.3456V14.5H51.2833V20.5ZM63.408 20.5H69.4703V14.5H63.408V20.5ZM75.5326 20.5H81.5949V14.5H75.5326V20.5ZM87.6572 20.5H93.7196V14.5H87.6572V20.5ZM99.7819 20.5H105.844V14.5H99.7819V20.5ZM111.907 20.5H117.969V14.5H111.907V20.5ZM124.031 20.5H130.093V14.5H124.031V20.5ZM136.156 20.5H142.218V14.5H136.156V20.5ZM148.28 20.5H154.343V14.5H148.28V20.5ZM160.405 20.5H166.467V14.5H160.405V20.5ZM172.53 20.5H178.592V14.5L172.53 14.5V20.5ZM184.654 20.5H190.717V14.5H184.654V20.5ZM196.779 20.5H202.841V14.5H196.779V20.5ZM208.904 20.5H214.966V14.5H208.904V20.5Z" fill="white"/>
</svg>
