<svg width="65" height="65" viewBox="0 0 65 65" fill="none" xmlns="http://www.w3.org/2000/svg">
<path d="M32.5 61.6144C16.4396 61.6144 3.38544 48.5603 3.38544 32.4998C3.38544 16.4394 16.4396 3.38525 32.5 3.38525C48.5604 3.38525 61.6146 16.4394 61.6146 32.4998C61.6146 48.5603 48.5604 61.6144 32.5 61.6144ZM32.5 7.44775C18.6875 7.44775 7.44794 18.6873 7.44794 32.4998C7.44794 46.3123 18.6875 57.5519 32.5 57.5519C46.3125 57.5519 57.5521 46.3123 57.5521 32.4998C57.5521 18.6873 46.3125 7.44775 32.5 7.44775Z" fill="white"/>
<path d="M29.0875 44.0916C28.5729 44.0916 28.0583 43.902 27.6521 43.4958C26.8666 42.7104 26.8666 41.4104 27.6521 40.6249L35.7771 32.4999L27.6521 24.3749C26.8666 23.5895 26.8666 22.2895 27.6521 21.5041C28.4375 20.7187 29.7375 20.7187 30.5229 21.5041L40.0833 31.0645C40.8687 31.8499 40.8687 33.1499 40.0833 33.9354L30.5229 43.4958C30.1166 43.902 29.602 44.0916 29.0875 44.0916Z" fill="white"/>
</svg>
