<svg width="106" height="106" viewBox="0 0 106 106" fill="none" xmlns="http://www.w3.org/2000/svg">
<circle cx="53" cy="53" r="53" fill="#897689"/>
<path d="M36.5 41C36.1022 41 35.7206 40.842 35.4393 40.5607C35.158 40.2794 35 39.8978 35 39.5C35 39.1022 35.158 38.7206 35.4393 38.4393C35.7206 38.158 36.1022 38 36.5 38H69.5C69.8978 38 70.2794 38.158 70.5607 38.4393C70.842 38.7206 71 39.1022 71 39.5C71 39.8978 70.842 40.2794 70.5607 40.5607C70.2794 40.842 69.8978 41 69.5 41H36.5ZM42.5 35C42.1022 35 41.7206 34.842 41.4393 34.5607C41.158 34.2794 41 33.8978 41 33.5C41 33.1022 41.158 32.7206 41.4393 32.4393C41.7206 32.158 42.1022 32 42.5 32H63.5C63.8978 32 64.2794 32.158 64.5607 32.4393C64.842 32.7206 65 33.1022 65 33.5C65 33.8978 64.842 34.2794 64.5607 34.5607C64.2794 34.842 63.8978 35 63.5 35H42.5ZM29 69.5C29 70.6935 29.4741 71.8381 30.318 72.682C31.1619 73.5259 32.3065 74 33.5 74H72.5C73.6935 74 74.8381 73.5259 75.682 72.682C76.5259 71.8381 77 70.6935 77 69.5V48.5C77 47.3065 76.5259 46.1619 75.682 45.318C74.8381 44.4741 73.6935 44 72.5 44H33.5C32.3065 44 31.1619 44.4741 30.318 45.318C29.4741 46.1619 29 47.3065 29 48.5V69.5ZM33.5 71C33.1022 71 32.7206 70.842 32.4393 70.5607C32.158 70.2794 32 69.8978 32 69.5V48.5C32 48.1022 32.158 47.7206 32.4393 47.4393C32.7206 47.158 33.1022 47 33.5 47H72.5C72.8978 47 73.2794 47.158 73.5607 47.4393C73.842 47.7206 74 48.1022 74 48.5V69.5C74 69.8978 73.842 70.2794 73.5607 70.5607C73.2794 70.842 72.8978 71 72.5 71H33.5Z" fill="#0E042B"/>
</svg>
