<svg width="106" height="106" viewBox="0 0 106 106" fill="none" xmlns="http://www.w3.org/2000/svg">
<circle cx="53" cy="53" r="53" fill="#897689"/>
<path d="M44.6667 65.8958H39.3125C33.7083 65.8958 30.6042 62.8125 30.6042 57.1875V42.3125C30.6042 36.7083 33.6875 33.6041 39.3125 33.6041H48.8333C54.4375 33.6041 57.5417 36.6875 57.5417 42.3125C57.5417 43.1666 56.8333 43.875 55.9792 43.875C55.125 43.875 54.4167 43.1666 54.4167 42.3125C54.4167 38.3958 52.75 36.7291 48.8333 36.7291H39.3125C35.3958 36.7291 33.7292 38.3958 33.7292 42.3125V57.1875C33.7292 61.1041 35.3958 62.7708 39.3125 62.7708H44.6667C45.5208 62.7708 46.2292 63.4791 46.2292 64.3333C46.2292 65.1875 45.5208 65.8958 44.6667 65.8958Z" fill="#0E042B"/>
<path d="M66.6875 78.3958H57.1667C51.5625 78.3958 48.4583 75.3125 48.4583 69.6875V54.8125C48.4583 49.2083 51.5417 46.1041 57.1667 46.1041H66.6875C72.2917 46.1041 75.3958 49.1875 75.3958 54.8125V69.6875C75.3958 75.3125 72.3125 78.3958 66.6875 78.3958ZM57.1667 49.2291C53.25 49.2291 51.5833 50.8958 51.5833 54.8125V69.6875C51.5833 73.6041 53.25 75.2708 57.1667 75.2708H66.6875C70.6042 75.2708 72.2708 73.6041 72.2708 69.6875V54.8125C72.2708 50.8958 70.6042 49.2291 66.6875 49.2291H57.1667Z" fill="#0E042B"/>
<path d="M65.7708 63.8125H59C58.1458 63.8125 57.4375 63.1042 57.4375 62.25C57.4375 61.3958 58.1458 60.6875 59 60.6875H65.7708C66.625 60.6875 67.3333 61.3958 67.3333 62.25C67.3333 63.1042 66.625 63.8125 65.7708 63.8125Z" fill="#0E042B"/>
<path d="M62.375 67.2083C61.5208 67.2083 60.8125 66.5 60.8125 65.6458V58.875C60.8125 58.0208 61.5208 57.3125 62.375 57.3125C63.2292 57.3125 63.9375 58.0208 63.9375 58.875V65.6458C63.9375 66.5 63.2292 67.2083 62.375 67.2083Z" fill="#0E042B"/>
</svg>
