<svg width="106" height="106" viewBox="0 0 106 106" fill="none" xmlns="http://www.w3.org/2000/svg">
<circle cx="53" cy="53" r="53" fill="#897689"/>
<path d="M59.0833 52.7917H46.5833C45.7292 52.7917 45.0208 52.0834 45.0208 51.2292C45.0208 50.3751 45.7292 49.6667 46.5833 49.6667H59.0833C59.9375 49.6667 60.6458 50.3751 60.6458 51.2292C60.6458 52.0834 59.9375 52.7917 59.0833 52.7917Z" fill="#0E042B" fill-opacity="0.99"/>
<path d="M36.1667 52.7919C35.3125 52.7919 34.6042 52.0835 34.6042 51.2294V41.6044C34.6042 36.5002 38.75 32.3544 43.8542 32.3544H55.5625C60.9167 32.3544 64.8125 35.9169 64.8125 40.8127C64.8125 41.6669 64.1042 42.3752 63.25 42.3752C62.3958 42.3752 61.6875 41.6669 61.6875 40.8127C61.6875 37.146 58.5 35.4794 55.5625 35.4794H43.8542C40.4792 35.4794 37.7292 38.2294 37.7292 41.6044V51.2294C37.7292 52.1044 37.0208 52.7919 36.1667 52.7919Z" fill="#0E042B" fill-opacity="0.99"/>
<path d="M65.3333 73.625H44.5C39.0417 73.625 34.6042 69.1875 34.6042 63.7292V49.1458C34.6042 43.6875 39.0417 39.25 44.5 39.25H65.3333C70.7917 39.25 75.2292 43.6875 75.2292 49.1458V52.1666C75.2292 53.0207 74.5208 53.7291 73.6667 53.7291H71.4166C70.6875 53.7291 70.0209 53.9999 69.5417 54.4999L69.5208 54.5207C68.8333 55.2082 68.5625 56.1666 68.8125 57.1041C69.125 58.2707 70.3542 59.125 71.7292 59.125H73.6667C74.5208 59.125 75.2292 59.8333 75.2292 60.6875V63.7083C75.2292 69.1875 70.7917 73.625 65.3333 73.625ZM44.5 42.375C40.7708 42.375 37.7292 45.4167 37.7292 49.1458V63.7292C37.7292 67.4583 40.7708 70.5 44.5 70.5H65.3333C69.0625 70.5 72.1042 67.4583 72.1042 63.7292V62.2708H71.7292C68.9167 62.2708 66.4791 60.4999 65.7916 57.9374C65.2499 55.9166 65.8333 53.7707 67.3125 52.3124C68.3958 51.2082 69.8541 50.6041 71.4166 50.6041H72.1042V49.1458C72.1042 45.4167 69.0625 42.375 65.3333 42.375H44.5V42.375Z" fill="#0E042B" fill-opacity="0.99"/>
<path d="M75.6873 62.2709H71.6664C68.5206 62.2709 65.854 59.9375 65.604 56.9375C65.4373 55.2084 66.0623 53.5208 67.3123 52.2916C68.354 51.2083 69.8331 50.6041 71.3956 50.6041H75.6665C77.7082 50.6041 79.3748 52.25 79.3748 54.2917V58.5833C79.3956 60.625 77.7289 62.2709 75.6873 62.2709ZM71.4165 53.7291C70.6873 53.7291 70.0207 53.9999 69.5415 54.4999C68.9374 55.0833 68.6457 55.875 68.729 56.6667C68.8332 58.0417 70.1664 59.1459 71.6664 59.1459H75.6873C75.9998 59.1459 76.2707 58.8958 76.2707 58.5833V54.2917C76.2707 53.9792 75.9998 53.7291 75.6873 53.7291H71.4165V53.7291Z" fill="#0E042B" fill-opacity="0.99"/>
</svg>
