<svg width="20" height="20" viewBox="0 0 20 20" fill="none" xmlns="http://www.w3.org/2000/svg">
<path d="M7.30832 12.025L8.64999 12.6249C9.50832 13.0083 10.4917 13.0083 11.3583 12.6249L12.7 12.025C13.9 11.4916 15.0083 12.9416 14.175 13.9583L11.2917 17.4833C10.5833 18.3499 9.42499 18.3499 8.70832 17.4833L5.83332 13.9583C4.99166 12.9416 6.09999 11.4916 7.30832 12.025Z" fill="white"/>
<path d="M7.14166 9.7251C6.89166 9.90843 6.92499 10.2918 7.20832 10.4334L9.16666 11.4084C9.62499 11.6418 10.3667 11.6418 10.8167 11.4084L12.775 10.4334C13.05 10.2918 13.0833 9.91676 12.8417 9.7251L10.25 7.7751C10.1 7.66676 9.89999 7.66676 9.74999 7.7751L7.14166 9.7251Z" fill="white"/>
<path d="M14.9 6.86676L11.425 2.53343C11.3583 2.45009 11.2833 2.37509 11.2083 2.30009C10.9917 2.09176 10.6833 2.28342 10.6833 2.58342V6.16676C10.6833 6.30009 10.7417 6.42509 10.85 6.50009L14.3083 9.10009L14.4583 9.20843C14.6083 9.31676 14.8167 9.31676 14.9417 9.18343C15.525 8.55009 15.5167 7.63342 14.9 6.86676Z" fill="white"/>
<path d="M5.09169 6.94154L8.55002 2.54154C8.61669 2.45821 8.68336 2.38321 8.75836 2.30821C8.97502 2.09987 9.28335 2.28321 9.28335 2.59154V6.23321C9.28335 6.36654 9.22502 6.48321 9.11669 6.56654L5.67502 9.2082L5.53335 9.31654C5.38335 9.42487 5.17502 9.42487 5.04169 9.2832C4.47502 8.64154 4.48336 7.72487 5.09169 6.94154Z" fill="white"/>
</svg>
