<svg width="40" height="40" viewBox="0 0 40 40" fill="none" xmlns="http://www.w3.org/2000/svg">
<rect width="40" height="40" rx="10" fill="black" fill-opacity="0.58"/>
<path d="M24.5632 8.48309L24.4211 8.96665L23.9475 9.13552C23.6842 9.22876 23.4895 9.322 23.5106 9.34531C23.537 9.36862 23.7423 9.45021 23.9737 9.52583L24.3947 9.6657L24.5526 10.1726C24.6369 10.4523 24.7211 10.6794 24.7368 10.6794C24.7525 10.6794 24.8367 10.4523 24.921 10.1726L25.0789 9.66001L25.5104 9.51445C25.7472 9.43286 25.9525 9.35128 25.9684 9.33393C25.9841 9.31658 25.7842 9.22903 25.5263 9.13579L25.0527 8.96692L24.9107 8.48336C24.8318 8.21528 24.7527 7.9998 24.737 7.9998C24.7211 7.99953 24.642 8.21501 24.5632 8.48309Z" fill="#ECA426"/>
<path d="M28.5474 10.7261L28.3422 11.4658L27.6318 11.7222L26.9213 11.9786L27.6318 12.2467L28.3371 12.5148L28.5477 13.2255C28.6635 13.6215 28.774 13.9419 28.7897 13.9419C28.8053 13.9419 28.916 13.6215 29.0319 13.2255L29.2425 12.5148L29.9478 12.2467L30.6582 11.9786L29.9529 11.7222L29.2425 11.4658L29.0319 10.7551C28.9109 10.3648 28.8002 10.0327 28.7845 10.0154C28.7683 9.99805 28.6633 10.3184 28.5474 10.7261Z" fill="#ECA426"/>
<path d="M19.6422 15.1475C19.5844 15.2057 18.4527 16.8367 17.1318 18.7766C15.8051 20.7163 14.6894 22.3358 14.6527 22.3824C14.6 22.4464 14.1947 22.1493 12.2527 20.6C10.9738 19.5746 9.65257 18.5202 9.32637 18.264C8.81576 17.8564 8.69478 17.7864 8.51576 17.7864C8.25249 17.7864 8 18.0369 8 18.299C8 18.3979 8.26327 19.2428 8.58433 20.1864C11.8579 29.7806 11.5001 28.7788 11.6842 28.8834C11.8158 28.959 12.8894 28.9707 19.9949 28.9707C26.2055 28.9707 28.1842 28.9534 28.2896 28.9008C28.3684 28.8598 28.4632 28.7609 28.5002 28.6736C28.6949 28.2603 32 18.4679 32 18.3107C32 18.0369 31.7527 17.7864 31.4842 17.7864C31.2947 17.7864 31.0211 17.9846 28.3473 20.1164C26.7315 21.398 25.4 22.4464 25.3789 22.4407C25.3579 22.4407 24.2527 20.8504 22.9211 18.9165C21.5894 16.9765 20.4369 15.3106 20.3578 15.2174C20.2473 15.0775 20.1788 15.0485 19.9841 15.0485C19.8369 15.0485 19.7105 15.0832 19.6422 15.1475ZM20.8736 22.1027C21.3261 22.8194 21.7052 23.4485 21.7158 23.4949C21.7368 23.5881 20.121 26.1862 20.0262 26.2095C20 26.2211 19.5998 25.621 19.1367 24.8873C18.4841 23.8388 18.3156 23.5241 18.3472 23.4425C18.4209 23.2794 20.0157 20.7572 20.0313 20.7746C20.0421 20.7862 20.421 21.3806 20.8736 22.1027Z" fill="#ECA426"/>
<path d="M13.4367 15.5434C13.3368 15.625 12.1052 18.7882 12.1052 18.9687C12.1052 19.0852 12.1789 19.1492 13.3104 19.9358C14.0419 20.4484 14.3683 20.6406 14.4631 20.6289C14.5736 20.6115 14.7053 20.4074 15.2683 19.3764C15.6998 18.5784 15.9315 18.1005 15.9104 18.0308C15.8842 17.9026 13.7527 15.5434 13.6263 15.4967C13.579 15.4794 13.4894 15.5027 13.4367 15.5434Z" fill="#ECA426"/>
<path d="M26.2843 15.5725C26.2001 15.6308 25.6738 16.1843 25.1211 16.8074C24.3842 17.623 24.1052 17.9784 24.1052 18.0716C24.1052 18.2055 25.3263 20.5065 25.4421 20.5941C25.5685 20.693 25.7316 20.6114 26.6211 19.994C27.8054 19.1727 27.8948 19.0911 27.8894 18.9339C27.8894 18.8639 27.6104 18.0716 27.2735 17.1804C26.6051 15.415 26.5738 15.3687 26.2843 15.5725Z" fill="#ECA426"/>
<path d="M11.7896 31.0098V32H19.9738H28.158L28.1632 31.7495C28.1632 31.6156 28.1737 31.1727 28.1737 30.7591L28.1842 30.0194H19.9895H11.7896V31.0098Z" fill="#ECA426"/>
</svg>
