<svg width="20" height="20" viewBox="0 0 20 20" fill="none" xmlns="http://www.w3.org/2000/svg">
<path d="M10.4262 19.5483C3.83485 19.5483 2.07376 12.6773 2.86982 8.17541C2.90446 7.97948 3.1613 7.92303 3.27321 8.08756C3.61978 8.59694 3.92817 9.33268 4.43915 9.26881C5.20716 9.1728 5.73923 2.39592 10.291 0.489089C10.4354 0.428581 10.5866 0.543386 10.5707 0.699167C10.3456 2.90749 11.6715 6.06901 14.0206 6.06901C15.3671 6.06901 16.2884 4.99432 16.7488 3.91503C16.8887 3.58717 17.3677 3.6285 17.4479 3.97581C18.2694 7.5337 20.4655 19.5483 10.4262 19.5483V19.5483Z" fill="#FF8F1F"/>
<path d="M8.11548 12.923C8.27048 12.7928 8.50579 12.8821 8.54099 13.0815C8.62333 13.548 8.89411 14.3498 9.78232 14.3498C10.8508 14.3498 11.5758 11.4098 11.766 10.5451C11.7973 10.4029 11.9359 10.3063 12.0786 10.3353C14.7488 10.8782 16.047 19.5485 10.1762 19.5485C5.90228 19.5485 6.87052 13.9689 8.11548 12.923ZM15.4116 3.53342C15.5057 2.79741 14.1621 4.81049 14.1621 4.81049C14.1621 4.81049 15.1865 5.29432 15.4116 3.53342ZM1.87356 14.5101C1.90189 14.1967 1.4988 13.3578 1.42743 13.69C1.25661 14.4847 1.84524 14.8234 1.87356 14.5101Z" fill="#FFB636"/>
<path d="M12.624 13.617C12.5239 13.1994 12.1649 14.1693 12.21 14.5644C12.2551 14.9594 12.8635 14.616 12.624 13.617Z" fill="#FFD469"/>
</svg>
