<svg width="49" height="29" viewBox="0 0 49 29" fill="none" xmlns="http://www.w3.org/2000/svg">
<path d="M31.924 27.666C31.668 28.4588 30.3745 28.9888 29.1107 28.7051C27.3797 28.3165 25.7813 27.7323 24.4062 26.9797C22.4272 25.8965 20.9879 24.5069 20.2477 22.9646C19.5074 21.4223 19.4952 19.7876 20.2122 18.2415C20.9293 16.6953 22.3477 15.298 24.3104 14.2042C26.2731 13.1105 28.7035 12.363 31.3325 12.0446C33.9615 11.7261 36.6866 11.8491 39.206 12.3999C41.7254 12.9507 43.9409 13.9078 45.607 15.1653C46.7647 16.0391 47.6259 17.0341 48.1514 18.0945C48.5351 18.8687 47.5597 19.603 46.2195 19.6997C44.8793 19.7964 43.6899 19.2125 43.1974 18.4606C42.8503 17.9307 42.3724 17.432 41.7759 16.9817C40.6701 16.1472 39.1999 15.512 37.5279 15.1465C35.856 14.781 34.0475 14.6993 32.3028 14.9107C30.558 15.122 28.9451 15.6181 27.6426 16.3439C26.3401 17.0698 25.3988 17.9971 24.9229 19.0232C24.447 20.0493 24.4552 21.1341 24.9464 22.1576C25.4377 23.1812 26.3928 24.1034 27.7062 24.8222C28.4147 25.21 29.2127 25.5304 30.0717 25.7751C31.2906 26.1221 32.1801 26.8731 31.924 27.666Z" fill="black"/>
<path d="M5.09902 3.14755C-0.576753 6.54272 -0.576753 12.0474 5.09902 15.4425C10.7748 18.8377 19.977 18.8377 25.6528 15.4425C31.3286 12.0474 31.3286 6.54272 25.6528 3.14755C19.977 -0.24762 10.7748 -0.24762 5.09902 3.14755ZM22.1961 13.3748C18.4294 15.6279 12.3224 15.6279 8.55576 13.3748C4.7891 11.1216 4.7891 7.46849 8.55576 5.21533C12.3224 2.96216 18.4294 2.96216 22.1961 5.21533C25.9627 7.46849 25.9627 11.1216 22.1961 13.3748Z" fill="black"/>
</svg>
